<svg xmlns="http://www.w3.org/2000/svg" xmlns:xlink="http://www.w3.org/1999/xlink" width="64" zoomAndPan="magnify" viewBox="0 0 48 48" height="64" preserveAspectRatio="xMidYMid meet" version="1.0"><defs><clipPath id="2959707402"><path d="M 0.488281 0 L 47.507812 0 L 47.507812 47.019531 L 0.488281 47.019531 Z M 0.488281 0 " clip-rule="nonzero"/></clipPath><clipPath id="7689a82e14"><path d="M 5.191406 4.703125 L 11.484375 4.703125 L 11.484375 42.320312 L 5.191406 42.320312 Z M 5.191406 4.703125 " clip-rule="nonzero"/></clipPath><clipPath id="f2da74c654"><path d="M 0.191406 0.703125 L 6.484375 0.703125 L 6.484375 38.320312 L 0.191406 38.320312 Z M 0.191406 0.703125 " clip-rule="nonzero"/></clipPath><clipPath id="ca1af8e3e1"><rect x="0" width="7" y="0" height="39"/></clipPath><clipPath id="236c2969e8"><path d="M 14.011719 4.695312 L 42.8125 4.695312 L 42.8125 10.988281 L 14.011719 10.988281 Z M 14.011719 4.695312 " clip-rule="nonzero"/></clipPath><clipPath id="871da6a4bf"><path d="M 0.0117188 0.695312 L 28.8125 0.695312 L 28.8125 6.988281 L 0.0117188 6.988281 Z M 0.0117188 0.695312 " clip-rule="nonzero"/></clipPath><clipPath id="60b2b4f9b8"><rect x="0" width="29" y="0" height="7"/></clipPath><clipPath id="b8ec6cc476"><path d="M 14.011719 20.359375 L 33.773438 20.359375 L 33.773438 26.652344 L 14.011719 26.652344 Z M 14.011719 20.359375 " clip-rule="nonzero"/></clipPath><clipPath id="e4717f9a57"><path d="M 0.0117188 0.359375 L 19.773438 0.359375 L 19.773438 6.652344 L 0.0117188 6.652344 Z M 0.0117188 0.359375 " clip-rule="nonzero"/></clipPath><clipPath id="3f6465b55e"><rect x="0" width="20" y="0" height="7"/></clipPath><clipPath id="2f4497c37e"><path d="M 14.011719 36.019531 L 42.8125 36.019531 L 42.8125 42.3125 L 14.011719 42.3125 Z M 14.011719 36.019531 " clip-rule="nonzero"/></clipPath><clipPath id="b4a229f0b1"><path d="M 0.0117188 0.0195312 L 28.8125 0.0195312 L 28.8125 6.3125 L 0.0117188 6.3125 Z M 0.0117188 0.0195312 " clip-rule="nonzero"/></clipPath><clipPath id="71f834b080"><rect x="0" width="29" y="0" height="7"/></clipPath></defs><g clip-path="url(#2959707402)"><path fill="#ffffff" d="M 0.488281 0 L 47.511719 0 L 47.511719 47.019531 L 0.488281 47.019531 Z M 0.488281 0 " fill-opacity="1" fill-rule="nonzero"/><path fill="#424242" d="M 0.488281 0 L 47.511719 0 L 47.511719 47.019531 L 0.488281 47.019531 Z M 0.488281 0 " fill-opacity="1" fill-rule="nonzero"/></g><g clip-path="url(#7689a82e14)"><g transform="matrix(1, 0, 0, 1, 5, 4)"><g clip-path="url(#ca1af8e3e1)"><g clip-path="url(#f2da74c654)"><path fill="#39ff14" d="M 0.191406 0.703125 L 6.484375 0.703125 L 6.484375 38.316406 L 0.191406 38.316406 Z M 0.191406 0.703125 " fill-opacity="1" fill-rule="nonzero"/></g></g></g></g><g clip-path="url(#236c2969e8)"><g transform="matrix(1, 0, 0, 1, 14, 4)"><g clip-path="url(#60b2b4f9b8)"><g clip-path="url(#871da6a4bf)"><path fill="#39ff14" d="M 0.0117188 6.988281 L 0.0117188 0.695312 L 28.800781 0.695312 L 28.800781 6.988281 Z M 0.0117188 6.988281 " fill-opacity="1" fill-rule="nonzero"/></g></g></g></g><g clip-path="url(#b8ec6cc476)"><g transform="matrix(1, 0, 0, 1, 14, 20)"><g clip-path="url(#3f6465b55e)"><g clip-path="url(#e4717f9a57)"><path fill="#39ff14" d="M 0.0117188 6.652344 L 0.0117188 0.359375 L 19.777344 0.359375 L 19.777344 6.652344 Z M 0.0117188 6.652344 " fill-opacity="1" fill-rule="nonzero"/></g></g></g></g><g clip-path="url(#2f4497c37e)"><g transform="matrix(1, 0, 0, 1, 14, 36)"><g clip-path="url(#71f834b080)"><g clip-path="url(#b4a229f0b1)"><path fill="#39ff14" d="M 0.0117188 6.3125 L 0.0117188 0.0195312 L 28.800781 0.0195312 L 28.800781 6.3125 Z M 0.0117188 6.3125 " fill-opacity="1" fill-rule="nonzero"/></g></g></g></g></svg>